<?xml version="1.0" encoding="UTF-8"?><svg xmlns="http://www.w3.org/2000/svg" viewBox="0 0 200 125"><defs><style>.cls-1{fill:#d8e1ee;stroke:#d8e1ee;stroke-miterlimit:10;}.cls-2{fill:#f8faff;}.cls-2,.cls-3,.cls-4{stroke-width:0px;}.cls-3{fill:#d9e1ee;}.cls-4{fill:#fff;}</style></defs><rect class="cls-2" x="-1.03" y="-1.94" width="202.05" height="128.88"/><rect class="cls-3" x="50" y="30.68" width="100" height="63.64" rx="5" ry="5"/><rect class="cls-4" x="54.55" y="35.23" width="90.91" height="54.55" rx="3" ry="3"/><path class="cls-1" d="M84.22,65.36h-22.18c-.59,0-1.06-.48-1.06-1.06v-22.15c0-.59.48-1.06,1.06-1.06h22.18c.59,0,1.06.48,1.06,1.06v22.15c0,.59-.48,1.06-1.06,1.06ZM63.1,63.23h20.06v-20.02h-20.06v20.02Z"/><path class="cls-1" d="M138.02,54.52h-45.09c-.56,0-1.01-.48-1.01-1.06s.45-1.06,1.01-1.06h45.09c.56,0,1.01.48,1.01,1.06s-.45,1.06-1.01,1.06Z"/><path class="cls-1" d="M138.02,64.32h-45.09c-.56,0-1.01-.48-1.01-1.06s.45-1.06,1.01-1.06h45.09c.56,0,1.01.48,1.01,1.06s-.45,1.06-1.01,1.06Z"/><path class="cls-1" d="M137.96,74.12H62.04c-.59,0-1.06-.48-1.06-1.06s.48-1.06,1.06-1.06h75.92c.59,0,1.06.48,1.06,1.06s-.48,1.06-1.06,1.06Z"/><path class="cls-1" d="M137.96,83.92H62.04c-.59,0-1.06-.48-1.06-1.06s.48-1.06,1.06-1.06h75.92c.59,0,1.06.48,1.06,1.06s-.48,1.06-1.06,1.06Z"/></svg>