<?xml version="1.0" encoding="UTF-8"?><svg id="_레이어_2" xmlns="http://www.w3.org/2000/svg" viewBox="0 0 187.89 119.17"><defs><style>.cls-1{fill:#d8e1ee;}.cls-1,.cls-2{stroke-width:0px;}.cls-2{fill:#fff;}</style></defs><rect class="cls-1" width="187.89" height="119.17" rx="6.99" ry="6.99"/><path class="cls-2" d="M170.9,27.17h-63.32c-1.39,0-2.51-1.12-2.51-2.51s1.12-2.51,2.51-2.51h63.32c1.39,0,2.51,1.12,2.51,2.51s-1.12,2.51-2.51,2.51Z"/><path class="cls-2" d="M170.9,49.08h-18.33c-1.39,0-2.51-1.12-2.51-2.51s1.12-2.51,2.51-2.51h18.33c1.39,0,2.51,1.12,2.51,2.51s-1.12,2.51-2.51,2.51Z"/><path class="cls-2" d="M117.75,70.98h-10.16c-1.39,0-2.51-1.12-2.51-2.51s1.12-2.51,2.51-2.51h10.16c1.39,0,2.51,1.12,2.51,2.51s-1.12,2.51-2.51,2.51Z"/><path class="cls-2" d="M144.52,92.87h-36.93c-1.39,0-2.51-1.12-2.51-2.51s1.12-2.51,2.51-2.51h36.93c1.39,0,2.51,1.12,2.51,2.51s-1.12,2.51-2.51,2.51Z"/><path class="cls-2" d="M136.04,49.08h-28.46c-1.39,0-2.51-1.12-2.51-2.51s1.12-2.51,2.51-2.51h28.46c1.39,0,2.51,1.12,2.51,2.51s-1.12,2.51-2.51,2.51Z"/><path class="cls-2" d="M170.9,70.97h-38.11c-1.39,0-2.51-1.12-2.51-2.51s1.12-2.51,2.51-2.51h38.11c1.39,0,2.51,1.12,2.51,2.51s-1.12,2.51-2.51,2.51Z"/><rect class="cls-2" x="14.47" y="17.38" width="74.73" height="84.41" rx="4.47" ry="4.47"/><circle class="cls-1" cx="51.84" cy="49.62" r="15.96"/><path class="cls-1" d="M84.54,96.75c0-15.44-14.64-27.95-32.7-27.95s-32.7,12.51-32.7,27.95c0,.02,0,.05,0,.07h65.39s0-.05,0-.07Z"/></svg>