<?xml version="1.0" encoding="UTF-8"?>
<svg id="_레이어_2" data-name="레이어 2" xmlns="http://www.w3.org/2000/svg" viewBox="0 0 2513.64 762.52">
  <defs>
    <style>
      .cls-1 {
        fill: #4f4c4b;
      }

      .cls-1, .cls-2, .cls-3, .cls-4 {
        stroke-width: 0px;
      }

      .cls-2 {
        fill: #459dce;
      }

      .cls-3 {
        fill: #f0f0f1;
      }

      .cls-4 {
        fill: #f6c520;
      }
    </style>
  </defs>
  <g id="_레이어_1-2" data-name="레이어 1">
    <g>
      <g>
        <path class="cls-1" d="M830.13,4.86h74.44v156.16h4.97L1040.08,4.86h89.85l-134.03,157.62,135.51,194.6h-89.34l-99.77-145.47-37.72,44.76v100.71h-74.44V4.86Z"/>
        <path class="cls-1" d="M1272.32,361.95c-95.8,0-168.26-66.41-168.26-180.98S1176.51,0,1272.32,0s167.77,65.92,167.77,180.98-72.72,180.98-167.77,180.98ZM1272.32,297.24c55.34-.24,92.07-41.1,91.83-116.27.24-75.4-36.49-116.03-91.83-116.27-55.84.24-92.32,40.87-92.32,116.27s36.48,116.03,92.32,116.27Z"/>
        <path class="cls-1" d="M1612.07,61.3c-37.72,0-58.82,17.03-59.07,40.38-.25,25.53,26.55,36.97,57.58,43.77l32.26,7.78c61.55,13.87,107.46,44.52,107.71,103.14-.25,64.46-51.37,105.82-138.98,105.57-86.86.25-142.21-39.17-144.43-114.81h72.46c2.49,35.52,31.28,53.51,70.98,53.51s64.53-18,64.53-44.28c0-24.08-22.34-35.26-61.55-44.76l-39.21-9.24c-60.57-14.59-97.79-44.27-97.79-95.84C1476.31,42.57,1533.89,0,1612.57,0s132.03,43.3,133.02,105.57h-71.48c-2.98-27.98-25.56-44.28-62.04-44.28Z"/>
        <path class="cls-1" d="M1859,357.09h-74.44V4.86h74.44v352.22Z"/>
        <path class="cls-1" d="M1904.87,4.86h241.22v60.33h-166.78v85.62h154.37v60.33h-154.37v85.62h167.28v60.33h-241.72V4.86Z"/>
        <path class="cls-1" d="M2169.16,357.09L2293.74,4.86h95.8l124.09,352.22h-79.91l-27.05-81.25h-130.05l-27.05,81.25h-80.41ZM2387.81,218.92l-44.92-134.75h-2.48l-44.92,134.75h92.32Z"/>
      </g>
      <g>
        <path class="cls-1" d="M830.13,455.83h32.93v-15.43h20.2v15.43h32.78v16.06h-85.9v-16.06ZM873.08,476.98c21,0,35.64,11.22,35.64,28s-14.63,27.68-35.64,27.68-35.95-10.98-35.95-27.68,14.88-28,35.95-28ZM851.12,540.45h20.21v26.09h78.91v16.23h-99.12v-42.32ZM873.08,517.23c9.79,0,16.39-4.3,16.39-12.25s-6.6-12.48-16.39-12.56c-9.7.08-16.14,4.53-16.06,12.56-.08,7.95,6.36,12.25,16.06,12.25ZM944.98,485.09h19.57v16.55h-19.57v47.08h-20.36v-108.02h20.36v44.39Z"/>
        <path class="cls-1" d="M1080.55,458.21c.08,10.66.08,22.91-2.94,38.49h18.69v16.23h-56.31v20.85h40.73v51.54h-20.36v-35.64h-82.16v-15.9h41.43v-20.85h-51.71v-16.23h89.17c2.71-13.6,3.1-24.18,3.27-33.72h-79.29v-16.07h99.49v11.3Z"/>
        <path class="cls-1" d="M1127.97,550.8h132.51v16.7h-132.51v-16.7ZM1255.71,509.12l-8.91,16.86c-25.29-5.01-43.98-19.25-53.37-37.78-9.54,18.38-28.31,32.69-53.37,37.78l-8.75-16.86c32.22-5.73,51.07-28.48,51.22-49.48v-10.5h21.64v10.5c-.08,21.23,18.77,43.91,51.55,49.48Z"/>
        <path class="cls-1" d="M1335.75,550.01h-69.53v-95.77h69.53v95.77ZM1315.55,533.93v-63.8h-29.28v63.8h29.28ZM1355.48,440.56h20.36v54.56h21.32v16.86h-21.32v73.34h-20.36v-144.76Z"/>
        <path class="cls-1" d="M1395.28,551.91h132.51v16.54h-132.51v-16.54ZM1513.32,531.39h-102.45v-80.17h101.34v16.39h-80.66v15.27h77.31v15.9h-77.31v16.55h81.78v16.06Z"/>
        <path class="cls-1" d="M1640.26,468.87h-80.5v-15.91h31.18v-13.68h20.2v13.68h29.11v15.91ZM1600.81,474.12c19.65.08,34.21,11.53,34.37,27.84-.16,15.83-14.71,27.52-34.37,27.52s-34.04-11.69-33.88-27.52c-.16-16.31,14.4-27.76,33.88-27.84ZM1582.03,539.35h99.43v45.97h-20.2v-29.91h-79.23v-16.06ZM1600.81,514.05c8.75,0,15.43-4.61,15.43-12.09,0-7.88-6.68-12.56-15.43-12.56s-15.03,4.69-14.95,12.56c-.08,7.47,6.13,12.09,14.95,12.09ZM1641.53,500.84h19.73v-11.77h-19.41v-16.06h19.41v-32.45h20.2v91.95h-20.2v-15.27h-19.73v-16.39Z"/>
        <path class="cls-1" d="M1727.47,462.66v-13.99h21.15v13.99c-.15,19.18,10.11,37.87,33.89,45.5l-10.34,15.91c-16.39-5.42-27.6-16.24-34.04-30-6.52,14.8-18.05,26.73-35,32.54l-10.51-16.07c24.27-8.11,34.84-28.23,34.84-47.89ZM1717.29,536.16h20.53v30.38h80.34v16.23h-100.86v-46.61ZM1814.33,546.35h-20.36v-105.64h20.36v105.64Z"/>
        <path class="cls-1" d="M1884.35,471.58h-49.32v-15.91h70c-.08,43.91-15.43,80.42-67.13,104.84l-10.66-16.23c37.38-17.66,53.85-40.56,57.1-72.7ZM1948.46,585.32h-20.51v-144.76h20.51v144.76Z"/>
        <path class="cls-1" d="M2037.99,472.69h24.27v-32.14h20.2v77.79h-20.2v-29.43h-24.19c-3.74,15.9-18.61,26.72-37.23,26.72-22.27,0-38.66-14.47-38.49-34.68-.16-19.81,16.23-34.36,38.49-34.21,18.46-.15,33.17,10.42,37.15,25.94ZM2000.84,498.62c10.98,0,18.85-6.85,18.93-17.67-.08-10.82-7.95-17.42-18.93-17.34-11.37-.08-19.33,6.52-19.25,17.34-.08,10.82,7.88,17.67,19.25,17.67ZM1985.89,524.7h20.04v14h56.32v-14h20.2v59.02h-96.56v-59.02ZM2062.26,567.35v-13.05h-56.32v13.05h56.32Z"/>
        <path class="cls-1" d="M2149.06,471.89h-48.29v-16.54h68.89c-.16,43.27-17.02,80.73-65.7,104.67l-11.45-15.59c34.28-17.19,52.73-40.25,56.56-72.55ZM2208.31,496.08h20.53v16.7h-20.53v72.22h-20.36v-144.45h20.36v55.52Z"/>
        <path class="cls-1" d="M2339.08,469.03h-80.5v-15.91h31.18v-13.84h20.2v13.84h29.11v15.91ZM2299.62,473.17c19.89,0,34.21,10.81,34.37,26.41-.16,15.67-14.48,26.16-34.37,26.24-19.96-.08-34.04-10.58-33.88-26.24-.16-15.6,13.92-26.41,33.88-26.41ZM2282.61,532.19h20.36v10.66h57.27v-10.66h20.05v51.54h-97.68v-51.54ZM2299.62,511.02c9.07.08,15.43-4.22,15.43-11.45s-6.37-11.22-15.43-11.3c-9.15.08-15.03,4.06-14.95,11.3-.08,7.23,5.8,11.53,14.95,11.45ZM2360.24,568.14v-10.18h-57.27v10.18h57.27ZM2340.35,500.05h19.73v-12.25h-19.41v-16.39h19.41v-30.86h20.2v86.22h-20.2v-10.5h-19.73v-16.23Z"/>
        <path class="cls-1" d="M2429.48,544.03v-12.25c-15.83-2.86-26.17-12.73-26.09-26.33-.08-16.14,14.63-27.2,35.95-27.2s36.44,11.05,36.44,27.2c0,13.53-10.34,23.38-26.25,26.33v11.54c12.18-.56,24.35-1.51,35.96-3.02l1.43,14.95c-31.74,5.5-65.87,5.81-91.63,5.73l-2.71-16.54c11.06-.08,23.71-.08,36.91-.41ZM2395.43,456.62h34.04v-15.43h20.2v15.43h33.73v15.91h-87.97v-15.91ZM2439.33,517.23c10.18,0,17.03-4.14,17.03-11.77s-6.85-11.69-17.03-11.77c-9.86.08-16.78,4.3-16.7,11.77-.08,7.64,6.85,11.77,16.7,11.77ZM2513.64,585.32h-20.21v-144.76h20.21v144.76Z"/>
      </g>
      <g>
        <path class="cls-1" d="M829.85,620.68h7.61v30.24h.76l27.2-30.24h9.98l-25.61,27.63,25.61,33.54h-9.3l-21.04-28.31-7.6,8.62v19.69h-7.61v-61.18Z"/>
        <path class="cls-1" d="M872.8,659.13c0-14.33,8.45-23.75,20.96-23.75s20.82,9.42,20.78,23.75c.04,14.24-8.32,23.7-20.78,23.66-12.51.04-20.96-9.42-20.96-23.66ZM893.76,676.37c9.25,0,13.52-8.07,13.52-17.24s-4.27-17.32-13.52-17.32-13.65,8.19-13.69,17.32c.04,9.17,4.35,17.24,13.69,17.24Z"/>
        <path class="cls-1" d="M919.76,635.97h7.02v7.02h.5c1.65-4.65,6.43-7.73,11.84-7.77,1.1.04,2.95.08,3.8.16v7.35c-.55-.12-2.5-.5-4.39-.5-6.6,0-11.49,4.56-11.49,10.72v28.9h-7.27v-45.88Z"/>
        <path class="cls-1" d="M942.02,659.3c0-14.1,8.32-23.92,20.78-23.92,9.64,0,19.82,5.92,19.78,22.9v3.04h-33.3c.38,9.72,6.04,15.05,14.2,15.05,5.49,0,8.96-2.41,10.65-5.24h7.77c-2.16,6.97-8.96,11.71-18.43,11.67-13.26.04-21.46-9.42-21.46-23.5ZM975.22,655.16c-.04-7.65-4.85-13.35-12.42-13.35s-12.97,6.25-13.48,13.35h25.9Z"/>
        <path class="cls-1" d="M1002.75,655.33c2.96-.22,10.34-.64,12.42-.68v-3.73c0-5.83-3.47-9.21-10.4-9.21-5.79,0-9.3,2.66-10.31,6.18h-7.6c.92-7.39,8.11-12.52,18.25-12.52,6,0,17.28,1.78,17.24,16.22v30.26h-7.18v-6.25h-.35c-1.52,3.08-5.69,7.3-13.68,7.34-8.71-.04-15.63-5.15-15.63-14.1,0-10.53,9.29-12.94,17.24-13.52ZM1002.42,676.45c8.19.04,12.76-5.45,12.76-11.24v-4.61c-2.16.13-9.38.68-11.58.81-6.59.42-10.77,2.74-10.82,7.76.04,4.86,4.06,7.31,9.64,7.27Z"/>
        <path class="cls-1" d="M1067.87,626.59c-8.11,0-13.4,4.23-13.44,10.06.04,6.42,7.18,8.83,11.83,9.98l6.08,1.69c6.54,1.69,17.32,5.45,17.32,16.9,0,9.97-8.02,17.7-22.22,17.74-13.19-.04-21.34-6.84-22.06-16.98h7.77c.64,6.84,7.02,10.1,14.29,10.06,8.44.04,14.78-4.31,14.78-10.99,0-5.95-5.66-8.23-12.08-10.06l-7.53-2.03c-9.59-2.79-15.59-7.68-15.55-15.97-.04-10.34,9.17-17.16,21.05-17.16s20.4,6.93,20.7,16.22h-7.44c-.64-5.99-6.22-9.46-13.52-9.46Z"/>
        <path class="cls-1" d="M1095.32,635.97h7.02v7.19h.59c1.89-4.91,6.33-7.78,12.33-7.78s10.1,2.88,12.25,7.78h.51c2.32-4.73,7.18-7.78,13.78-7.78,8.15,0,14.02,4.99,14.02,15.8v30.67h-7.26v-30.58c-.04-6.76-4.27-9.38-9.3-9.38-6.38,0-10.01,4.3-10.05,10.14v29.82h-7.35v-31.35c.04-5.15-3.68-8.61-8.96-8.61s-10.3,4.65-10.3,11.32v28.65h-7.27v-45.88Z"/>
        <path class="cls-1" d="M1178.2,655.33c2.96-.22,10.34-.64,12.42-.68v-3.73c0-5.83-3.47-9.21-10.4-9.21-5.79,0-9.3,2.66-10.31,6.18h-7.6c.92-7.39,8.11-12.52,18.25-12.52,6,0,17.28,1.78,17.24,16.22v30.26h-7.18v-6.25h-.35c-1.52,3.08-5.69,7.3-13.68,7.34-8.71-.04-15.63-5.15-15.63-14.1,0-10.53,9.29-12.94,17.24-13.52ZM1177.86,676.45c8.19.04,12.76-5.45,12.76-11.24v-4.61c-2.16.13-9.38.68-11.58.81-6.59.42-10.77,2.74-10.82,7.76.04,4.86,4.06,7.31,9.64,7.27Z"/>
        <path class="cls-1" d="M1205.14,635.97h7.02v7.02h.51c1.64-4.65,6.41-7.73,11.82-7.77,1.11.04,2.96.08,3.81.16v7.35c-.55-.12-2.5-.5-4.39-.5-6.6,0-11.49,4.56-11.49,10.72v28.9h-7.27v-45.88Z"/>
        <path class="cls-1" d="M1253.92,642.06h-9.64v26.62c-.04,5.87,2.92,6.84,6,6.84,1.31,0,3.25-.12,4.31-.16v6.76c-1.15.16-2.92.34-5.08.34-6.12,0-12.55-3.81-12.59-11.92v-28.47h-6.92v-6.08h6.92v-10.98h7.35v10.98h9.64v6.08Z"/>
        <path class="cls-1" d="M1284.89,681.86h-7.6v-61.18h7.6v61.18Z"/>
        <path class="cls-1" d="M1300.43,681.86h-7.27v-45.88h7.02v7.19h.59c2.15-4.69,6.46-7.78,13.44-7.78,9.29,0,15.5,5.66,15.46,17.33v29.15h-7.26v-28.65c0-7.1-3.89-11.32-10.4-11.32s-11.57,4.48-11.57,12.41v27.55Z"/>
        <path class="cls-1" d="M1344.27,681.86h-7.27v-45.88h7.02v7.19h.59c2.15-4.69,6.46-7.78,13.43-7.78,9.3,0,15.51,5.66,15.47,17.33v29.15h-7.26v-28.65c0-7.1-3.89-11.32-10.4-11.32s-11.57,4.48-11.57,12.41v27.55Z"/>
        <path class="cls-1" d="M1378.65,659.13c0-14.33,8.45-23.75,20.96-23.75s20.82,9.42,20.78,23.75c.04,14.24-8.32,23.7-20.78,23.66-12.51.04-20.96-9.42-20.96-23.66ZM1399.6,676.37c9.25,0,13.52-8.07,13.52-17.24s-4.27-17.32-13.52-17.32-13.65,8.19-13.69,17.32c.04,9.17,4.35,17.24,13.69,17.24Z"/>
        <path class="cls-1" d="M1444.71,681.86h-7.52l-16.9-45.88h7.94l12.51,36.42h.51l12.5-36.42h7.95l-16.98,45.88Z"/>
        <path class="cls-1" d="M1479,655.33c2.95-.22,10.34-.64,12.41-.68v-3.73c0-5.83-3.46-9.21-10.39-9.21-5.79,0-9.3,2.66-10.31,6.18h-7.6c.93-7.39,8.11-12.52,18.25-12.52,5.99,0,17.28,1.78,17.24,16.22v30.26h-7.19v-6.25h-.33c-1.53,3.08-5.7,7.3-13.69,7.34-8.71-.04-15.63-5.15-15.63-14.1,0-10.53,9.29-12.94,17.24-13.52ZM1478.66,676.45c8.19.04,12.75-5.45,12.75-11.24v-4.61c-2.15.13-9.37.68-11.57.81-6.59.42-10.77,2.74-10.82,7.76.04,4.86,4.06,7.31,9.64,7.27Z"/>
        <path class="cls-1" d="M1525.97,642.06h-9.64v26.62c-.04,5.87,2.92,6.84,6,6.84,1.31,0,3.25-.12,4.31-.16v6.76c-1.15.16-2.92.34-5.08.34-6.12,0-12.55-3.81-12.59-11.92v-28.47h-6.92v-6.08h6.92v-10.98h7.35v10.98h9.64v6.08Z"/>
        <path class="cls-1" d="M1534.65,618.74c2.79-.04,5.11,2.12,5.15,4.82-.04,2.65-2.37,4.81-5.15,4.81s-5.11-2.16-5.07-4.81c-.04-2.7,2.28-4.86,5.07-4.82ZM1531.02,635.97h7.27v45.88h-7.27v-45.88Z"/>
        <path class="cls-1" d="M1543.34,659.13c0-14.33,8.45-23.75,20.96-23.75s20.82,9.42,20.78,23.75c.04,14.24-8.32,23.7-20.78,23.66-12.51.04-20.96-9.42-20.96-23.66ZM1564.29,676.37c9.25,0,13.52-8.07,13.52-17.24s-4.27-17.32-13.52-17.32-13.65,8.19-13.69,17.32c.04,9.17,4.35,17.24,13.69,17.24Z"/>
        <path class="cls-1" d="M1597.57,681.86h-7.27v-45.88h7.02v7.19h.59c2.15-4.69,6.46-7.78,13.44-7.78,9.29,0,15.5,5.66,15.46,17.33v29.15h-7.26v-28.65c0-7.1-3.89-11.32-10.4-11.32s-11.57,4.48-11.57,12.41v27.55Z"/>
        <path class="cls-1" d="M1652.47,620.68h37.1v6.76h-29.49v20.45h27.54v6.67h-27.54v20.54h29.91v6.76h-37.52v-61.18Z"/>
        <path class="cls-1" d="M1703.58,681.86h-7.27v-45.88h7.02v7.19h.59c2.15-4.69,6.46-7.78,13.44-7.78,9.29,0,15.5,5.66,15.46,17.33v29.15h-7.26v-28.65c0-7.1-3.89-11.32-10.4-11.32s-11.57,4.48-11.57,12.41v27.55Z"/>
        <path class="cls-1" d="M1760.16,642.06h-9.63v26.62c-.04,5.87,2.92,6.84,6,6.84,1.31,0,3.25-.12,4.3-.16v6.76c-1.14.16-2.91.34-5.06.34-6.13,0-12.56-3.81-12.6-11.92v-28.47h-6.92v-6.08h6.92v-10.98h7.35v10.98h9.63v6.08Z"/>
        <path class="cls-1" d="M1765.22,635.97h7.02v7.02h.5c1.65-4.65,6.43-7.73,11.84-7.77,1.1.04,2.95.08,3.8.16v7.35c-.55-.12-2.5-.5-4.39-.5-6.6,0-11.49,4.56-11.49,10.72v28.9h-7.27v-45.88Z"/>
        <path class="cls-1" d="M1787.48,659.3c0-14.1,8.32-23.92,20.78-23.92,9.64,0,19.82,5.92,19.78,22.9v3.04h-33.3c.38,9.72,6.04,15.05,14.2,15.05,5.49,0,8.96-2.41,10.65-5.24h7.77c-2.16,6.97-8.96,11.71-18.43,11.67-13.26.04-21.46-9.42-21.46-23.5ZM1820.68,655.16c-.04-7.65-4.85-13.35-12.42-13.35s-12.97,6.25-13.48,13.35h25.9Z"/>
        <path class="cls-1" d="M1833.17,635.97h7.02v7.27h.85c1.56-2.46,4.34-7.87,13.26-7.87,11.53,0,19.51,9.14,19.51,23.66s-7.98,23.79-19.43,23.75c-8.75.04-11.79-5.41-13.35-7.95h-.59v24.25h-7.27v-63.12ZM1853.37,676.29c8.71,0,13.18-7.65,13.18-17.41s-4.35-16.98-13.18-16.98-13.06,6.8-13.1,16.98c.04,10.3,4.65,17.41,13.1,17.41Z"/>
        <path class="cls-1" d="M1878.95,635.97h7.02v7.02h.5c1.65-4.65,6.43-7.73,11.84-7.77,1.1.04,2.95.08,3.8.16v7.35c-.55-.12-2.5-.5-4.39-.5-6.6,0-11.49,4.56-11.49,10.72v28.9h-7.27v-45.88Z"/>
        <path class="cls-1" d="M1901.21,659.3c0-14.1,8.32-23.92,20.78-23.92,9.64,0,19.82,5.92,19.78,22.9v3.04h-33.3c.38,9.72,6.04,15.05,14.2,15.05,5.49,0,8.96-2.41,10.65-5.24h7.77c-2.16,6.97-8.96,11.71-18.43,11.67-13.26.04-21.46-9.42-21.46-23.5ZM1934.41,655.16c-.04-7.65-4.85-13.35-12.42-13.35s-12.97,6.25-13.48,13.35h25.9Z"/>
        <path class="cls-1" d="M1954.17,681.86h-7.27v-45.88h7.02v7.19h.59c2.15-4.69,6.46-7.78,13.43-7.78,9.3,0,15.51,5.66,15.47,17.33v29.15h-7.26v-28.65c0-7.1-3.89-11.32-10.4-11.32s-11.57,4.48-11.57,12.41v27.55Z"/>
        <path class="cls-1" d="M1988.55,659.3c0-14.1,8.32-23.92,20.78-23.92,9.64,0,19.82,5.92,19.78,22.9v3.04h-33.3c.38,9.72,6.04,15.05,14.2,15.05,5.49,0,8.96-2.41,10.65-5.24h7.77c-2.16,6.97-8.96,11.71-18.43,11.67-13.26.04-21.46-9.42-21.46-23.5ZM2021.76,655.16c-.04-7.65-4.85-13.35-12.42-13.35s-12.97,6.25-13.48,13.35h25.9Z"/>
        <path class="cls-1" d="M2063.23,635.97h7.18v45.88h-7.18v-7.77h-.51c-2.15,4.65-6.71,8.37-13.6,8.37-8.71,0-14.91-5.66-14.87-17.33v-29.15h7.27v28.65c0,6.59,4.1,10.86,9.97,10.82,5.2.04,11.71-3.84,11.75-12.42v-27.04Z"/>
        <path class="cls-1" d="M2077.75,635.97h7.02v7.02h.5c1.65-4.65,6.43-7.73,11.84-7.77,1.1.04,2.95.08,3.8.16v7.35c-.55-.12-2.5-.5-4.39-.5-6.6,0-11.49,4.56-11.49,10.72v28.9h-7.27v-45.88Z"/>
        <path class="cls-1" d="M2116.75,681.86l22.4-61.18h8.02l22.4,61.18h-8.03l-6.12-17.24h-24.59l-6.12,17.24h-7.95ZM2153.09,657.94l-9.72-27.38h-.5l-9.72,27.38h19.94Z"/>
        <path class="cls-1" d="M2188.77,641.56c-5.65.04-9.67,3.08-9.71,6.92.04,3.04,2.49,5.11,7.86,6.42l6.84,1.69c8.19,1.95,12.21,6.04,12.25,12.42-.04,7.95-6.5,13.82-18,13.78-10.3.04-16.44-4.57-17.66-12.94h7.6c.85,4.49,4.1,6.64,9.89,6.6,6.54.04,10.64-2.7,10.64-7.02,0-3.25-2.32-5.37-7.52-6.59l-6.93-1.61c-7.98-1.85-12.25-6.21-12.25-12.34,0-7.86,6.88-13.52,16.98-13.52,9.5,0,15.47,5.08,16.4,12.52h-7.1c-1.01-3.81-3.93-6.3-9.3-6.34Z"/>
        <path class="cls-1" d="M2227.38,641.56c-5.66.04-9.67,3.08-9.72,6.92.05,3.04,2.5,5.11,7.87,6.42l6.84,1.69c8.19,1.95,12.21,6.04,12.25,12.42-.04,7.95-6.5,13.82-18,13.78-10.31.04-16.44-4.57-17.66-12.94h7.6c.85,4.49,4.1,6.64,9.88,6.6,6.55.04,10.65-2.7,10.65-7.02,0-3.25-2.32-5.37-7.52-6.59l-6.93-1.61c-7.98-1.85-12.25-6.21-12.25-12.34,0-7.86,6.88-13.52,16.98-13.52,9.5,0,15.47,5.08,16.4,12.52h-7.1c-1.01-3.81-3.93-6.3-9.3-6.34Z"/>
        <path class="cls-1" d="M2247.55,659.13c0-14.33,8.45-23.75,20.96-23.75s20.82,9.42,20.78,23.75c.04,14.24-8.32,23.7-20.78,23.66-12.51.04-20.96-9.42-20.96-23.66ZM2268.51,676.37c9.25,0,13.52-8.07,13.52-17.24s-4.27-17.32-13.52-17.32-13.65,8.19-13.69,17.32c.04,9.17,4.35,17.24,13.69,17.24Z"/>
        <path class="cls-1" d="M2292.33,659.13c0-13.94,8.32-23.75,20.78-23.75,9.76,0,17.11,5.8,18.25,14.45h-7.26c-1.05-4.18-4.69-8.02-10.82-8.02-8.2,0-13.65,6.76-13.69,17.06.04,10.6,5.37,17.41,13.69,17.41,5.41,0,9.55-2.92,10.82-7.95h7.26c-1.14,8.19-7.9,14.49-18.08,14.45-13.02.04-20.96-9.88-20.96-23.66Z"/>
        <path class="cls-1" d="M2339.63,618.74c2.79-.04,5.11,2.12,5.15,4.82-.04,2.65-2.37,4.81-5.15,4.81s-5.11-2.16-5.07-4.81c-.04-2.7,2.28-4.86,5.07-4.82ZM2335.99,635.97h7.27v45.88h-7.27v-45.88Z"/>
        <path class="cls-1" d="M2365.55,655.33c2.95-.22,10.34-.64,12.41-.68v-3.73c0-5.83-3.46-9.21-10.39-9.21-5.79,0-9.3,2.66-10.31,6.18h-7.6c.93-7.39,8.11-12.52,18.25-12.52,5.99,0,17.28,1.78,17.24,16.22v30.26h-7.19v-6.25h-.33c-1.53,3.08-5.7,7.3-13.69,7.34-8.71-.04-15.63-5.15-15.63-14.1,0-10.53,9.29-12.94,17.24-13.52ZM2365.21,676.45c8.19.04,12.75-5.45,12.75-11.24v-4.61c-2.15.13-9.37.68-11.57.81-6.59.42-10.77,2.74-10.82,7.76.04,4.86,4.06,7.31,9.64,7.27Z"/>
        <path class="cls-1" d="M2412.52,642.06h-9.64v26.62c-.04,5.87,2.92,6.84,6,6.84,1.31,0,3.25-.12,4.31-.16v6.76c-1.15.16-2.92.34-5.08.34-6.12,0-12.55-3.81-12.59-11.92v-28.47h-6.92v-6.08h6.92v-10.98h7.35v10.98h9.64v6.08Z"/>
        <path class="cls-1" d="M2421.21,618.74c2.79-.04,5.11,2.12,5.15,4.82-.04,2.65-2.37,4.81-5.15,4.81s-5.11-2.16-5.07-4.81c-.04-2.7,2.28-4.86,5.07-4.82ZM2417.57,635.97h7.27v45.88h-7.27v-45.88Z"/>
        <path class="cls-1" d="M2429.89,659.13c0-14.33,8.45-23.75,20.96-23.75s20.82,9.42,20.78,23.75c.04,14.24-8.32,23.7-20.78,23.66-12.51.04-20.96-9.42-20.96-23.66ZM2450.85,676.37c9.25,0,13.52-8.07,13.52-17.24s-4.27-17.32-13.52-17.32-13.65,8.19-13.69,17.32c.04,9.17,4.35,17.24,13.69,17.24Z"/>
        <path class="cls-1" d="M2484.12,681.86h-7.27v-45.88h7.02v7.19h.59c2.15-4.69,6.46-7.78,13.44-7.78,9.29,0,15.5,5.66,15.46,17.33v29.15h-7.26v-28.65c0-7.1-3.89-11.32-10.4-11.32s-11.57,4.48-11.57,12.41v27.55Z"/>
      </g>
      <g>
        <path class="cls-3" d="M308.29,421.85c.05-62.71-50.8-113.54-113.55-113.54s-113.51,50.83-113.52,113.54c.01,62.74,50.85,113.54,113.52,113.57,62.75-.03,113.55-50.85,113.55-113.57Z"/>
        <path class="cls-3" d="M729.25,341.57c-9.64-9.61-20.7-16.76-32.35-22.19-1.77-.84-3.42-2.03-5.24-2.77-1.34-.53-2.79-.72-4.15-1.21-12.44-4.52-25.47-7.12-38.57-7.09l-.03-.04c-29.04.04-58.07-11.06-80.26-33.23-22.14-22.15-33.23-51.23-33.23-80.3h-.05c0-29.06-11.06-58.11-33.23-80.28-44.35-44.35-116.27-44.32-160.57,0-44.35,44.32-44.35,116.25-.02,160.58,22.19,22.19,51.25,33.25,80.29,33.27h.03c29.05,0,58.09,11.09,80.27,33.26,22.15,22.16,33.24,51.21,33.26,80.26,0,29.05-11.1,58.13-33.27,80.32-22.17,22.14-51.2,33.24-80.26,33.23l-.03.02c-29.02.01-58.08,11.12-80.26,33.29-44.36,44.34-44.36,116.22-.05,160.56,44.36,44.35,116.26,44.35,160.61-.02,22.17-22.15,33.28-51.22,33.23-80.29.02-.01.03.02.03.02.01-29.07,11.09-58.12,33.27-80.27,22.19-22.2,51.23-33.3,80.27-33.28,29.05-.01,58.14-11.12,80.27-33.27,44.36-44.34,44.35-116.26.03-160.58Z"/>
      </g>
      <g>
        <path class="cls-4" d="M0,340.63c.01-62.71,50.88-113.54,113.52-113.54s113.59,50.83,113.55,113.54c0,62.72-50.8,113.54-113.55,113.57C50.85,454.17.01,403.37,0,340.63Z"/>
        <path class="cls-2" d="M648.03,260.35c-9.64-9.61-20.7-16.76-32.35-22.19-1.77-.84-3.42-2.03-5.24-2.77-1.34-.53-2.79-.72-4.15-1.21-12.44-4.52-25.47-7.12-38.57-7.09l-.03-.04c-29.04.04-58.07-11.06-80.26-33.23-22.14-22.15-33.23-51.23-33.23-80.3h-.05c0-29.06-11.06-58.11-33.23-80.28-44.35-44.35-116.27-44.32-160.57,0-44.35,44.32-44.35,116.25-.02,160.58,22.19,22.19,51.25,33.25,80.29,33.27h.03c29.05,0,58.09,11.09,80.27,33.26,22.15,22.16,33.24,51.21,33.26,80.26,0,29.05-11.1,58.13-33.27,80.32-22.17,22.14-51.2,33.24-80.26,33.23l-.03.02c-29.02.01-58.08,11.12-80.26,33.29-44.36,44.34-44.36,116.21-.05,160.56,44.36,44.36,116.26,44.36,160.61-.02,22.17-22.15,33.28-51.22,33.23-80.29.02-.01.03.02.03.02.01-29.07,11.09-58.12,33.27-80.27,22.19-22.2,51.23-33.3,80.27-33.28,29.05-.01,58.14-11.12,80.27-33.27,44.36-44.34,44.35-116.26.03-160.58Z"/>
      </g>
    </g>
  </g>
</svg>